<?xml version="1.0" encoding="utf-8"?>
<!-- Generator: Adobe Illustrator 19.0.0, SVG Export Plug-In . SVG Version: 6.00 Build 0)  -->
<svg version="1.1"
	 id="Calque_1" xmlns:dc="http://purl.org/dc/elements/1.1/" xmlns:cc="http://creativecommons.org/ns#" xmlns:rdf="http://www.w3.org/1999/02/22-rdf-syntax-ns#" xmlns:svg="http://www.w3.org/2000/svg" xmlns:sodipodi="http://sodipodi.sourceforge.net/DTD/sodipodi-0.dtd" xmlns:inkscape="http://www.inkscape.org/namespaces/inkscape"
	 xmlns="http://www.w3.org/2000/svg" xmlns:xlink="http://www.w3.org/1999/xlink" x="0px" y="0px" viewBox="-489 492.3 100 97.7"
	 style="enable-background:new -489 492.3 100 97.7;" xml:space="preserve">
<style type="text/css">
	.st0{fill:#DBC48A;}
</style>
<g transform="translate(0,-952.36218)">
	<path class="st0" d="M-928,1931.7c-1.1,0-2,0.9-2,2v16c0,1.1,0.9,2,2,2s2-0.9,2-2v-16C-926,1932.6-926.9,1931.7-928,1931.7z
		 M-955.6,1943.1c-0.5,0-1,0.2-1.4,0.6c-0.8,0.8-0.8,2.1,0,2.8l11.3,11.3c0.8,0.8,2.1,0.8,2.8,0c0.8-0.8,0.8-2.1,0-2.8l-11.3-11.3
		C-954.5,1943.3-955.1,1943.1-955.6,1943.1z M-900.4,1943.1c-0.5,0-1,0.2-1.4,0.6l-11.3,11.3c-0.8,0.8-0.8,2.1,0,2.8
		c0.8,0.8,2.1,0.8,2.8,0l11.3-11.3c0.8-0.8,0.8-2.1,0-2.8C-899.4,1943.3-899.9,1943.1-900.4,1943.1z M-928,1957.7
		c-8.3,0-15,6.7-15,15s6.7,15,15,15s15-6.7,15-15S-919.7,1957.7-928,1957.7z M-967,1970.7c-1.1,0-2,0.9-2,2s0.9,2,2,2h16
		c1.1,0,2-0.9,2-2s-0.9-2-2-2H-967z M-905,1970.7c-1.1,0-2,0.9-2,2s0.9,2,2,2h16c1.1,0,2-0.9,2-2s-0.9-2-2-2H-905z M-944.2,1986.9
		c-0.5,0-1,0.2-1.4,0.6l-11.3,11.3c-0.8,0.8-0.8,2.1,0,2.8c0.8,0.8,2.1,0.8,2.8,0l11.3-11.3c0.8-0.8,0.8-2.1,0-2.8
		C-943.2,1987.1-943.7,1986.9-944.2,1986.9z M-911.8,1986.9c-0.5,0-1,0.2-1.4,0.6c-0.8,0.8-0.8,2.1,0,2.8l11.3,11.3
		c0.8,0.8,2.1,0.8,2.8,0c0.7-0.8,0.8-2.1,0-2.8l-11.3-11.3C-910.7,1987.1-911.2,1986.9-911.8,1986.9L-911.8,1986.9z M-928,1993.7
		c-1.1,0-2,0.9-2,2v16c0,1.1,0.9,2,2,2s2-0.9,2-2v-16C-926,1994.6-926.9,1993.7-928,1993.7z"/>
</g>
<g id="XMLID_2_">
	<g id="XMLID_3_">
		<path id="XMLID_11_" class="st0" d="M-443,578.7c2.2-1.6,4.4-3.4,6.4-5.3c2.7-2.5,6.4-5.8,7.9-9.2c0.2-0.6,0.4-1.2,0.3-1.8
			C-432.8,568.3-437.7,573.7-443,578.7z"/>
		<path id="XMLID_10_" class="st0" d="M-428.8,557.4c0.5-0.7,0.9-1.3,1.4-2c-4.4-0.1-8.8,0-13.2,0.3c3.1,0.6,6.2,1,9.5,1.3
			C-430.3,557.1-429.6,557.2-428.8,557.4z"/>
		<path id="XMLID_9_" class="st0" d="M-431.6,531.2c-3.7,4.4-7.6,8.8-11.5,13C-438.8,540.2-434.8,536-431.6,531.2z"/>
		<path id="XMLID_4_" class="st0" d="M-458.4,555c-1.3,1.2,0.1,3,1.6,2.7c2.5-0.5,5-0.9,7.5-1.2c3.4,1.2,6.9,2.1,10.4,2.6
			c2,0.3,4,0.5,6,0.7c0.7,0.1,1.6,0,2.3,0.1c-3.9,5.3-8.3,10.3-13.1,14.9c0.4-1.2,0.7-2.5,0.9-3.8c0.3-2-2-2.7-3-1.3
			c-0.5,0.1-0.9,0.5-1.1,1c-1.4,3.6-2.8,7.1-4.4,10.6c-0.2,0.5-0.2,1.1,0.1,1.6c0,0.1-0.1,0.1-0.1,0.2c-0.1,0.2-0.1,0.3-0.1,0.5
			c-0.6,1-0.2,2.5,1.3,2.5c2.2,0,4.4-0.1,6.7-0.1c0.8,0,1.4-0.6,1.6-1.3c2.7-0.6,5.5-1.4,8.2-2.3c1.4-0.5,1.8-2.9,0-3.2
			c-2-0.3-3.9-0.5-5.8-0.5c2.1-1.4,4-3,5.9-4.7c2.9-2.7,8.5-7.7,8.8-11.9c0.1-1.4-0.3-2.4-1.1-3.2c1-1.4,1.9-2.8,2.8-4.3
			c0.7-1.1-0.2-2.4-1.4-2.4c-8.1-0.3-16.2,0-24.2,1c10.4-8.8,20.5-18.2,25.4-31.2c0.1-0.3,0.1-0.7-0.1-1.1c0,0,0,0,0.1-0.1
			c0.7-1-0.3-2.5-1.4-2.4c-7.6,0.5-15.2,1.5-22.7,2.9c-0.3,0-0.5-0.1-0.8-0.1c3.3-4.8,6.6-9.6,9.8-14.5c2-2.7,3.9-5.5,5.6-8.3
			c1.1-1.8-1.6-3.3-2.8-1.6c-1.8,2.6-3.6,5.2-5.3,7.8c-5,6.8-10.5,13.2-16.6,19.1c-1.2,1.1,0,3.1,1.6,2.7c2.9-0.7,5.8-1.4,8.7-2
			c6.1,0.5,12.2-2,18.3-1.9C-437.9,534.2-447.8,545-458.4,555z M-428.7,564.2c-1.5,3.4-5.3,6.7-7.9,9.2c-2,1.9-4.1,3.6-6.4,5.3
			c5.4-5,10.2-10.4,14.6-16.3C-428.4,563.1-428.5,563.7-428.7,564.2z M-427.4,555.4c-0.5,0.7-0.9,1.4-1.4,2
			c-0.8-0.2-1.6-0.3-2.3-0.4c-3.2-0.3-6.4-0.7-9.5-1.3C-436.2,555.4-431.8,555.3-427.4,555.4z M-431.6,531.2c-3.2,4.8-7.2,9-11.5,13
			C-439.1,540-435.3,535.6-431.6,531.2z"/>
	</g>
</g>
</svg>
