<?xml version="1.0" encoding="utf-8"?>
<!-- Generator: Adobe Illustrator 19.0.0, SVG Export Plug-In . SVG Version: 6.00 Build 0)  -->
<svg version="1.1"
	 id="Calque_1" xmlns:dc="http://purl.org/dc/elements/1.1/" xmlns:cc="http://creativecommons.org/ns#" xmlns:rdf="http://www.w3.org/1999/02/22-rdf-syntax-ns#" xmlns:svg="http://www.w3.org/2000/svg" xmlns:sodipodi="http://sodipodi.sourceforge.net/DTD/sodipodi-0.dtd" xmlns:inkscape="http://www.inkscape.org/namespaces/inkscape"
	 xmlns="http://www.w3.org/2000/svg" xmlns:xlink="http://www.w3.org/1999/xlink" x="0px" y="0px" viewBox="-489 492.3 100 97.7"
	 style="enable-background:new -489 492.3 100 97.7;" xml:space="preserve">
<style type="text/css">
	.st0{fill:#DBC48A;}
</style>
<g transform="translate(0,-952.36218)">
	<path class="st0" d="M-928,1931.7c-1.1,0-2,0.9-2,2v16c0,1.1,0.9,2,2,2s2-0.9,2-2v-16C-926,1932.6-926.9,1931.7-928,1931.7z
		 M-955.6,1943.1c-0.5,0-1,0.2-1.4,0.6c-0.8,0.8-0.8,2.1,0,2.8l11.3,11.3c0.8,0.8,2.1,0.8,2.8,0c0.8-0.8,0.8-2.1,0-2.8l-11.3-11.3
		C-954.5,1943.3-955.1,1943.1-955.6,1943.1z M-900.4,1943.1c-0.5,0-1,0.2-1.4,0.6l-11.3,11.3c-0.8,0.8-0.8,2.1,0,2.8
		c0.8,0.8,2.1,0.8,2.8,0l11.3-11.3c0.8-0.8,0.8-2.1,0-2.8C-899.4,1943.3-899.9,1943.1-900.4,1943.1z M-928,1957.7
		c-8.3,0-15,6.7-15,15s6.7,15,15,15s15-6.7,15-15S-919.7,1957.7-928,1957.7z M-967,1970.7c-1.1,0-2,0.9-2,2s0.9,2,2,2h16
		c1.1,0,2-0.9,2-2s-0.9-2-2-2H-967z M-905,1970.7c-1.1,0-2,0.9-2,2s0.9,2,2,2h16c1.1,0,2-0.9,2-2s-0.9-2-2-2H-905z M-944.2,1986.9
		c-0.5,0-1,0.2-1.4,0.6l-11.3,11.3c-0.8,0.8-0.8,2.1,0,2.8c0.8,0.8,2.1,0.8,2.8,0l11.3-11.3c0.8-0.8,0.8-2.1,0-2.8
		C-943.2,1987.1-943.7,1986.9-944.2,1986.9z M-911.8,1986.9c-0.5,0-1,0.2-1.4,0.6c-0.8,0.8-0.8,2.1,0,2.8l11.3,11.3
		c0.8,0.8,2.1,0.8,2.8,0c0.7-0.8,0.8-2.1,0-2.8l-11.3-11.3C-910.7,1987.1-911.2,1986.9-911.8,1986.9L-911.8,1986.9z M-928,1993.7
		c-1.1,0-2,0.9-2,2v16c0,1.1,0.9,2,2,2s2-0.9,2-2v-16C-926,1994.6-926.9,1993.7-928,1993.7z"/>
</g>
<g>
	<title>summer-party</title>
	<g>
		<path class="st0" d="M-442.4,522.8c0,1.3,1,2.3,2.3,2.3s2.3-1,2.3-2.3V516c0-1.3-1-2.3-2.3-2.3s-2.3,1-2.3,2.3V522.8L-442.4,522.8
			z"/>
		<path class="st0" d="M-440.1,550.4c-1.3,0-2.3,1-2.3,2.3V571c0,1.3,1,2.3,2.3,2.3s2.3-1,2.3-2.3v-18.3
			C-437.8,551.4-438.9,550.4-440.1,550.4z"/>
		<path class="st0" d="M-401.2,536.6h-20.6c-1.3,0-2.3,1-2.3,2.3c0,1.3,1,2.3,2.3,2.3h20.6c1.3,0,2.3-1,2.3-2.3
			C-398.9,537.6-399.9,536.6-401.2,536.6z"/>
		<path class="st0" d="M-449.3,536.6h-11.5c-1.3,0-2.3,1-2.3,2.3c0,1.3,1,2.3,2.3,2.3h11.5c1.3,0,2.3-1,2.3-2.3
			C-447,537.6-448,536.6-449.3,536.6z"/>
		<path class="st0" d="M-476.8,550.4h2.3v2.3c0,1.3,1,2.3,2.3,2.3s2.3-1,2.3-2.3v-2.3h2.3c1.3,0,2.3-1,2.3-2.3c0-1.3-1-2.3-2.3-2.3
			h-2.3v-2.3c0-1.3-1-2.3-2.3-2.3s-2.3,1-2.3,2.3v2.3h-2.3c-1.3,0-2.3,1-2.3,2.3C-479.1,549.3-478.1,550.4-476.8,550.4z"/>
		<path class="st0" d="M-405.7,561.8h-2.3v-2.3c0-1.3-1-2.3-2.3-2.3s-2.3,1-2.3,2.3v2.3h-2.3c-1.3,0-2.3,1-2.3,2.3
			c0,1.3,1,2.3,2.3,2.3h2.3v2.3c0,1.3,1,2.3,2.3,2.3s2.3-1,2.3-2.3v-2.3h2.3c1.3,0,2.3-1,2.3-2.3
			C-403.5,562.8-404.5,561.8-405.7,561.8z"/>
		<path class="st0" d="M-444.7,504.5h-2.3v-2.3c0-1.3-1-2.3-2.3-2.3s-2.3,1-2.3,2.3v2.3h-2.3c-1.3,0-2.3,1-2.3,2.3s1,2.3,2.3,2.3
			h2.3v2.3c0,1.3,1,2.3,2.3,2.3s2.3-1,2.3-2.3v-2.3h2.3c1.3,0,2.3-1,2.3-2.3S-443.5,504.5-444.7,504.5z"/>
		<path class="st0" d="M-408,509.1c0.6,0,1.2-0.2,1.6-0.7l4.6-4.6c0.9-0.9,0.9-2.3,0-3.2c-0.9-0.9-2.3-0.9-3.2,0l-4.6,4.6
			c-0.9,0.9-0.9,2.3,0,3.2C-409.2,508.9-408.6,509.1-408,509.1z"/>
		<path class="st0" d="M-431,532c0.6,0,1.2-0.2,1.6-0.7l16-16c0.9-0.9,0.9-2.3,0-3.2s-2.3-0.9-3.2,0l-16,16c-0.9,0.9-0.9,2.3,0,3.2
			C-432.1,531.8-431.6,532-431,532z"/>
		<path class="st0" d="M-462.4,519.9c0.4,0.4,1,0.7,1.6,0.7s1.2-0.2,1.6-0.7c0.9-0.9,0.9-2.3,0-3.2l-11.4-11.4
			c-0.9-0.9-2.3-0.9-3.2,0c-0.9,0.9-0.9,2.3,0,3.2L-462.4,519.9z"/>
		<path class="st0" d="M-449.3,532c0.6,0,1.2-0.2,1.6-0.7c0.9-0.9,0.9-2.3,0-3.2l-4.6-4.6c-0.9-0.9-2.3-0.9-3.2,0s-0.9,2.3,0,3.2
			l4.6,4.6C-450.5,531.8-449.9,532-449.3,532z"/>
		<path class="st0" d="M-424.1,557.2c0.6,0,1.2-0.2,1.6-0.7c0.9-0.9,0.9-2.3,0-3.2l-11.5-11.5c-0.9-0.9-2.3-0.9-3.2,0
			s-0.9,2.3,0,3.2l11.5,11.5C-425.3,557-424.7,557.2-424.1,557.2z"/>
		<path class="st0" d="M-450.9,546.4l-27.5,27.5c-0.9,0.9-0.9,2.3,0,3.2c0.4,0.4,1,0.7,1.6,0.7s1.2-0.2,1.6-0.7l27.5-27.5
			c0.9-0.9,0.9-2.3,0-3.2C-448.6,545.5-450,545.5-450.9,546.4z"/>
		<path class="st0" d="M-475.6,524.9l9.2,4.6c0.3,0.2,0.7,0.2,1,0.2c0.8,0,1.7-0.5,2.1-1.3c0.6-1.1,0.1-2.5-1-3.1l-9.2-4.6
			c-1.1-0.6-2.5-0.1-3.1,1C-477.2,522.9-476.7,524.3-475.6,524.9z"/>
		<path class="st0" d="M-450.6,562.1c-1.1-0.6-2.5-0.1-3.1,1l-4.6,9.2c-0.6,1.1-0.1,2.5,1,3.1c0.3,0.2,0.7,0.2,1,0.2
			c0.8,0,1.7-0.5,2.1-1.3l4.6-9.2C-449,564-449.5,562.6-450.6,562.1z"/>
		<path class="st0" d="M-429.7,515.7c0.3,0.2,0.7,0.2,1,0.2c0.8,0,1.7-0.5,2.1-1.3l4.6-9.2c0.6-1.1,0.1-2.5-1-3.1
			c-1.1-0.6-2.5-0.1-3.1,1l-4.6,9.2C-431.3,513.8-430.8,515.2-429.7,515.7z"/>
		<path class="st0" d="M-429,558.4c-0.6-1.1-2-1.5-3.1-0.9c-1.1,0.6-1.5,2-0.9,3.1l11.5,20.6c0.4,0.8,1.2,1.2,2,1.2
			c0.4,0,0.8-0.1,1.1-0.3c1.1-0.6,1.5-2,0.9-3.1L-429,558.4z"/>
		<path class="st0" d="M-421.6,530.7c0.4,0.8,1.2,1.3,2.1,1.3c0.3,0,0.7-0.1,1-0.2l9.2-4.6c1.1-0.6,1.6-1.9,1-3.1
			c-0.6-1.1-1.9-1.6-3.1-1l-9.2,4.6C-421.7,528.2-422.1,529.6-421.6,530.7z"/>
	</g>
</g>
</svg>
